#define fullscr_width 8
#define fullscr_height 8
static unsigned char fullscr_bits[] = {
   0xff, 0x81, 0xbd, 0x85, 0x9d, 0x85, 0x81, 0xff };
