#define starbound_width 8
#define starbound_height 8
static unsigned short starbound_bits[] = {
   0x0091, 0x007e, 0x0048, 0x00d0, 0x0060, 0x0040, 0x0040, 0x0080 };
