#define tabbed_width 8
#define tabbed_height 8
static unsigned char tabbed_bits[] = {
    0x0F,
    0x0F,
    0xFF,
    0xFF,
    0xFF,
    0xFF,
    0xFF,
    0xFF
}
    
