#define xmonad_width 8
#define xmonad_height 8
static unsigned short xmonad_bits[] = {
   0x0000, 0x0024, 0x0018, 0x0024, 0x0000, 0x005b, 0x0080, 0x005b };
