#define ftb_width 8
#define ftb_height 8
static unsigned char ftb_bits[] = {
   0x1c, 0x08, 0x08, 0x08, 0x63, 0xe1, 0xa3, 0xe1 };
