#define mirrortall_width 8
#define mirrortall_height 8
static unsigned char mirrortall_bits[] = {
    0xFF,
    0xFF,
    0xFF,
    0xFF,
    0x00,
    0xEF,
    0xEF,
    0xEF
}
