#define pickaxe_width 8
#define pickaxe_height 8
static unsigned short pickaxe_bits[] = {
   0x003c, 0x0042, 0x009c, 0x00a8, 0x00b4, 0x00aa, 0x0045, 0x0003 };
