#define space_width 8
#define space_height 8
static unsigned short space_bits[] = {
   0x0060, 0x0098, 0x00bc, 0x007e, 0x007e, 0x003d, 0x0019, 0x0006 };
