#define term_width 8
#define term_height 8
static unsigned short term_bits[] = {
   0x0001, 0x0002, 0x0004, 0x0008, 0x0004, 0x0002, 0x00f1, 0x0000 };
